<svg width="66" height="66" viewBox="0 0 66 66" fill="none" xmlns="http://www.w3.org/2000/svg">
<path d="M24.4917 45.376H41.5074C41.7909 45.376 42.023 45.144 42.023 44.8604V39.4463C42.023 39.1627 41.7909 38.9307 41.5074 38.9307H38.9292C38.6456 38.9307 38.4136 39.1627 38.4136 39.4463V41.7666H27.5855V39.4463C27.5855 39.1627 27.3534 38.9307 27.0699 38.9307H24.4917C24.2081 38.9307 23.9761 39.1627 23.9761 39.4463V44.8604C23.9761 45.144 24.2081 45.376 24.4917 45.376ZM46.4058 37.4483C46.4058 38.132 46.6774 38.7878 47.1609 39.2713C47.6444 39.7548 48.3002 40.0264 48.9839 40.0264C49.6677 40.0264 50.3234 39.7548 50.8069 39.2713C51.2904 38.7878 51.562 38.132 51.562 37.4483C51.562 36.7645 51.2904 36.1088 50.8069 35.6253C50.3234 35.1418 49.6677 34.8701 48.9839 34.8701C48.3002 34.8701 47.6444 35.1418 47.1609 35.6253C46.6774 36.1088 46.4058 36.7645 46.4058 37.4483ZM61.8101 26.6459L60.2825 23.9776C60.2139 23.8599 60.1014 23.7743 59.9698 23.7392C59.8382 23.7042 59.6981 23.7227 59.58 23.7907L56.3122 25.6985L51.2656 11.7637C50.9991 10.9322 50.4753 10.2069 49.7698 9.69255C49.0642 9.17817 48.2135 8.90132 47.3404 8.90198H19.4128C17.1763 8.90198 15.1911 10.3457 14.5015 12.4791L9.69329 25.7049L6.41907 23.7971C6.30102 23.7291 6.16088 23.7107 6.02926 23.7457C5.89763 23.7807 5.7852 23.8664 5.71653 23.984L4.18899 26.6459C4.04719 26.8908 4.13098 27.2002 4.37591 27.342L8.26887 29.6108L7.3343 32.1889C7.25696 32.3951 7.21829 32.6143 7.21829 32.8334V55.276C7.21829 56.2879 7.97884 57.1065 8.91341 57.1065H13.2704C14.0632 57.1065 14.7529 56.5071 14.9204 55.6692L15.4167 53.2393H50.5824L51.0786 55.6692C51.2527 56.5071 51.9359 57.1065 52.7286 57.1065H57.0857C58.0202 57.1065 58.7808 56.2879 58.7808 55.276V32.8334C58.7808 32.6143 58.7421 32.3951 58.6648 32.1889L57.7302 29.6108L61.6167 27.342C61.7337 27.2745 61.8195 27.1637 61.8557 27.0335C61.8919 26.9033 61.8755 26.7642 61.8101 26.6459ZM54.1402 33.3233V48.5987H11.8589V33.3233L12.8644 30.5518H53.1347L54.1402 33.3233ZM18.865 14.0582L18.8972 13.9744L18.923 13.8907C18.9939 13.678 19.1872 13.5362 19.4128 13.5362H46.973L51.8327 26.9424H14.1792L18.865 14.0582ZM14.437 37.4483C14.437 38.132 14.7087 38.7878 15.1922 39.2713C15.6756 39.7548 16.3314 40.0264 17.0152 40.0264C17.6989 40.0264 18.3547 39.7548 18.8382 39.2713C19.3217 38.7878 19.5933 38.132 19.5933 37.4483C19.5933 36.7645 19.3217 36.1088 18.8382 35.6253C18.3547 35.1418 17.6989 34.8701 17.0152 34.8701C16.3314 34.8701 15.6756 35.1418 15.1922 35.6253C14.7087 36.1088 14.437 36.7645 14.437 37.4483Z" fill="white"/>
</svg>
