<svg width="66" height="66" viewBox="0 0 66 66" fill="none" xmlns="http://www.w3.org/2000/svg">
<path d="M59.8125 10.3125H6.1875C5.04668 10.3125 4.125 11.2342 4.125 12.375V53.625C4.125 54.7658 5.04668 55.6875 6.1875 55.6875H59.8125C60.9533 55.6875 61.875 54.7658 61.875 53.625V12.375C61.875 11.2342 60.9533 10.3125 59.8125 10.3125ZM8.76562 14.9531H57.2344V22.6875H8.76562V14.9531ZM57.2344 51.0469H8.76562V28.3594H57.2344V51.0469ZM41.959 46.9219H52.5938C52.8773 46.9219 53.1094 46.6898 53.1094 46.4062V41.7656C53.1094 41.482 52.8773 41.25 52.5938 41.25H41.959C41.6754 41.25 41.4434 41.482 41.4434 41.7656V46.4062C41.4434 46.6898 41.6754 46.9219 41.959 46.9219Z" fill="white"/>
</svg>
