<svg width="66" height="66" viewBox="0 0 66 66" fill="none" xmlns="http://www.w3.org/2000/svg">
<path d="M33 4.125L8.25 12.375V37.125C8.25 50.7955 19.3295 61.875 33 61.875C46.6705 61.875 57.75 50.7955 57.75 37.125V12.375L33 4.125ZM53.1094 37.125C53.1094 48.2303 44.1053 57.2344 33 57.2344C21.8947 57.2344 12.8906 48.2303 12.8906 37.125V15.8555L33 8.76562L53.1094 15.8555V37.125Z" fill="white"/>
<path d="M24.389 30.6217C24.1739 30.4056 23.9183 30.2342 23.6368 30.1172C23.3553 30.0002 23.0535 29.94 22.7487 29.94C22.4438 29.94 22.142 30.0002 21.8605 30.1172C21.579 30.2342 21.3234 30.4056 21.1083 30.6217C20.8923 30.8367 20.7208 31.0923 20.6039 31.3738C20.4869 31.6553 20.4267 31.9571 20.4267 32.262C20.4267 32.5668 20.4869 32.8686 20.6039 33.1501C20.7208 33.4316 20.8923 33.6872 21.1083 33.9023L29.4486 42.2425L29.5839 42.3779C29.7874 42.5817 30.029 42.7434 30.295 42.8537C30.5609 42.964 30.8461 43.0208 31.134 43.0208C31.422 43.0208 31.7071 42.964 31.9731 42.8537C32.2391 42.7434 32.4807 42.5817 32.6841 42.3779L47.0894 27.9726C47.2933 27.7692 47.4549 27.5276 47.5653 27.2616C47.6756 26.9956 47.7324 26.7105 47.7324 26.4226C47.7324 26.1346 47.6756 25.8495 47.5653 25.5835C47.4549 25.3175 47.2933 25.0759 47.0894 24.8725L46.909 24.692C46.7056 24.4882 46.4639 24.3265 46.198 24.2162C45.932 24.1059 45.6468 24.0491 45.3589 24.0491C45.0709 24.0491 44.7858 24.1059 44.5198 24.2162C44.2538 24.3265 44.0122 24.4882 43.8088 24.692L31.1308 37.3634L24.389 30.6217Z" fill="white"/>
</svg>
