<svg width="66" height="66" viewBox="0 0 66 66" fill="none" xmlns="http://www.w3.org/2000/svg">
<path d="M56.8473 17.5377V9.28125C56.8473 8.14043 55.9256 7.21875 54.7848 7.21875H11.2145C10.0737 7.21875 9.15199 8.14043 9.15199 9.28125V17.5377C8.07562 17.6021 7.21839 18.498 7.21839 19.5938V28.0822C7.21427 29.6423 7.53015 31.1866 8.14652 32.6197C8.42367 33.2771 8.76527 33.8959 9.15199 34.4824V56.7188C9.15199 57.8531 10.0737 58.7812 11.2145 58.7812H54.7848C55.9256 58.7812 56.8473 57.8596 56.8473 56.7188V34.4824C57.2401 33.8944 57.5767 33.2708 57.8528 32.6197C58.4651 31.1824 58.7809 29.6549 58.7809 28.0822V19.5938C58.7809 18.498 57.9237 17.6021 56.8473 17.5377ZM13.7926 11.8594H52.2067V17.5312H13.7926V11.8594ZM37.1246 54.1471H28.8746V47.4375H37.1246V54.1471ZM52.2067 54.1471H41.2496V45.375C41.2496 44.2342 40.328 43.3125 39.1871 43.3125H26.8121C25.6713 43.3125 24.7496 44.2342 24.7496 45.375V54.1471H13.7926V38.5365C13.9795 38.6268 14.1729 38.717 14.3727 38.7943C15.81 39.4002 17.3375 39.7031 18.9102 39.7031C20.4828 39.7031 22.0039 39.4002 23.4477 38.7943C24.3371 38.4205 25.175 37.9436 25.942 37.3699C25.9549 37.3635 25.9678 37.3635 25.9807 37.3699C26.7501 37.946 27.5879 38.4245 28.475 38.7943C29.9123 39.4002 31.4399 39.7031 33.0125 39.7031C34.5852 39.7031 36.1063 39.4002 37.55 38.7943C38.4395 38.4205 39.2774 37.9436 40.0444 37.3699C40.0573 37.3635 40.0702 37.3635 40.083 37.3699C40.8524 37.946 41.6903 38.4245 42.5774 38.7943C44.0147 39.4002 45.5422 39.7031 47.1149 39.7031C48.6875 39.7031 50.2086 39.4002 51.6524 38.7943C51.8457 38.7105 52.0391 38.6268 52.2325 38.5365V54.1471H52.2067ZM54.1403 28.0822C54.1403 31.9365 50.9821 35.0625 47.0955 35.0625C44.4659 35.0625 42.1713 33.6381 40.9596 31.524C40.7727 31.2018 40.4375 31.002 40.0637 31.002H40.025C39.6576 31.002 39.316 31.2018 39.1291 31.524C38.5108 32.6024 37.6179 33.4979 36.5413 34.1194C35.4647 34.7409 34.2428 35.0663 32.9996 35.0625C30.3764 35.0625 28.0883 33.6445 26.8766 31.5369C26.6832 31.2082 26.3352 31.002 25.9549 31.002C25.5746 31.002 25.2201 31.2082 25.0332 31.5369C24.4113 32.6112 23.5173 33.5027 22.4412 34.1216C21.3652 34.7405 20.1451 35.065 18.9037 35.0625C15.0172 35.0625 11.859 31.9365 11.859 28.0822V22.2041C11.859 22.1848 11.8719 22.1719 11.8912 22.1719H54.108C54.1274 22.1719 54.1403 22.1848 54.1403 22.2041V28.0822Z" fill="white"/>
</svg>
